<?xml version="1.0" ?><!DOCTYPE svg  PUBLIC '-//W3C//DTD SVG 1.1//EN'  'http://www.w3.org/Graphics/SVG/1.1/DTD/svg11.dtd'><svg height="512px" style="enable-background:new 0 0 512 512;" version="1.1" viewBox="-256 -256 1024 1024" width="512px" xml:space="preserve" xmlns="http://www.w3.org/2000/svg" xmlns:xlink="http://www.w3.org/1999/xlink"><g id="_x38_6"><g><g><path d="M255.781,142.448c-1.261,0-2.511-0.676-3.175-1.838c-0.245-0.424-0.4-0.897-0.448-1.386     l-0.3-2.816c-0.052-0.012-0.097-0.021-0.149-0.034c-0.952-0.221-1.78-0.833-2.268-1.68c-0.458-0.792-0.688-1.786-1.213-4.949     c-1.531,0.904-3.305,1.962-4.928,2.941c-1.304,0.785-2.959,0.652-4.118-0.336c-1.158-0.989-1.552-2.605-0.982-4.015     c0.925-2.28,1.886-4.691,2.732-6.844c-0.797-0.273-1.477-0.825-1.907-1.562c-0.703-1.204-0.943-1.616,0.318-3.987     c-7.471,4.303-7.79,4.221-8.954,3.909c-0.909-0.24-1.686-0.834-2.152-1.65c-1.531-2.644,0.245-4.087,3.189-6.471     c1.228-0.995,2.368-1.931,3.427-2.802c-0.03-0.048-0.058-0.094-0.085-0.139c-0.297-0.513-0.503-0.943-0.561-1.431l-6.468,3.735     c-0.813,0.467-1.777,0.594-2.68,0.352c-0.904-0.243-1.677-0.834-2.147-1.646c-1.201-2.083-0.215-3.793,1.813-6.149     c-0.006-0.006-0.009-0.006-0.012-0.006c-0.904-0.246-1.674-0.834-2.141-1.646c-0.227-0.376-1.707-2.538-2.689-3.966     c-0.23-0.336-0.437-0.64-0.627-0.913c-0.825-0.218-1.774-0.782-2.541-2.11c-0.385-0.664-0.582-1.234-0.558-1.877     c-13.384,8.063-14.26,7.838-15.634,7.495c-0.931-0.23-1.762-0.858-2.241-1.686c-0.84-1.453-0.543-3.296,0.709-4.406     c0.139-0.125,0.279-0.246,0.416-0.37c-0.598,0.394-1.192,0.786-1.777,1.177c-0.81,0.54-1.813,0.725-2.762,0.497     c-0.949-0.218-1.765-0.828-2.253-1.674c-0.783-1.349-1.471-2.544,1.952-7.041c-4.147,2.153-4.979,1.95-5.946,1.716     c-0.934-0.228-1.844-0.901-2.326-1.735c-0.573-0.991-0.631-2.195-0.155-3.232l1.41-3.09c-15.152,9.342-16.374,9.042-17.753,8.703     c-0.882-0.216-1.707-0.804-2.205-1.568c-1.016,0.221-1.877,0.236-2.647,0.067c-1.237-0.273-2.256-1.007-2.872-2.071     c-0.785-1.361-0.576-3.078,0.513-4.212l5.051-5.258l-27.708,15.995c-1.689,0.977-3.848,0.397-4.824-1.292     c-0.973-1.692-0.397-3.851,1.295-4.827l49.258-28.438c1.522-0.88,3.46-0.507,4.542,0.882c1.089,1.383,0.989,3.357-0.23,4.625     l-7.301,7.602c1.446-1.007,2.75-1.922,3.778-2.647c7.875-5.555,8.515-6.004,10.443-5.585c0.967,0.215,1.84,0.849,2.337,1.707     c0.998,1.734,0.616,3.22-0.8,4.861c0.813,1.025,1.003,2.438,0.446,3.66l-2.213,4.854c3.599-2.135,8.851-5.364,16.51-10.261     c1.646-1.052,2.398-1.535,3.881-1.159c1.25,0.31,2.229,1.28,2.556,2.529c0.328,1.246-0.052,2.571-0.985,3.457     c-1.51,1.434-3.065,2.929-4.603,4.436c4.921-2.599,5.979-2.353,6.853-2.144c1.028,0.242,1.88,0.867,2.398,1.768     c0.743,1.286,0.87,2.396-0.131,4.1c0.437-0.27,0.871-0.54,1.304-0.807c0.813-0.506,1.795-0.658,2.723-0.425     c0.928,0.23,1.722,0.831,2.198,1.662c1.209,2.092,0.573,3.029-2.969,8.232c-0.564,0.828-1.322,1.94-1.974,2.929     c0.363,0.537,0.818,1.198,1.285,1.877c0.385,0.567,0.728,1.064,1.031,1.507c3.156-1.822,8.375-4.848,12.001-6.958     c0.813-0.473,1.78-0.601,2.686-0.361c0.91,0.243,1.683,0.834,2.15,1.649c0.97,1.677,0.455,3.026-0.576,4.378     c1.261-0.361,2.653,0.012,3.572,1.019c0.658,0.725,0.97,1.658,0.916,2.583c0.325-0.003,0.655,0.024,0.971,0.109     c0.921,0.233,1.713,0.831,2.189,1.656c0.612,1.061,0.831,2.019,0.37,3.223c0.328,0.167,0.631,0.388,0.901,0.661     c1.137,1.149,1.346,2.926,0.506,4.309c-0.892,1.471-1.971,3.26-3.026,5.006c0.228,0.228,0.428,0.479,0.588,0.764     c0.761,1.319,0.982,1.695-1.392,7.805c1.75-0.883,2.177-0.773,3.09-0.537c0.921,0.237,1.71,0.843,2.183,1.665     c0.449,0.773,0.579,1.516,1.134,4.903c0.03,0.179,0.067,0.379,0.1,0.588c0.182,0.015,0.37,0.045,0.57,0.091     c0.949,0.218,1.783,0.84,2.274,1.686c0.249,0.424,0.4,0.897,0.455,1.392l0.758,7.092c0.255,1.443-0.367,2.978-1.686,3.736     C256.943,142.306,256.364,142.448,255.781,142.448z" style="fill:#A91C44;"/></g><g><path d="M264.314,126.387c-0.255,0-0.516-0.03-0.759-0.085c-0.976-0.215-1.804-0.822-2.301-1.683     c-0.474-0.816-0.601-1.808-0.349-2.72c0.103-0.382,0.182-0.685,0.421-1.019c-1.252,0.185-1.907,0.03-2.462-0.103     c-1.219-0.288-2.217-1.016-2.811-2.044c-1.755-3.041-0.882-5.716,12.396-15.118c-0.897-0.17-1.734-0.686-2.28-1.504     c-1.067-1.589-0.68-3.732,0.873-4.845c0.134-0.091,9.479-6.768,21.838-15.137c-0.655-0.31-1.219-0.815-1.589-1.446     c-0.977-1.692-0.4-3.848,1.292-4.824c0.339-0.2,0.703-0.333,1.073-0.409c3.705-1.674,27.769-15.907,42.463-24.728     c0.818-0.488,1.782-0.628,2.71-0.388c0.916,0.233,1.698,0.831,2.165,1.652c0.049,0.085,0.091,0.17,0.14,0.249     c11.146-5.643,13.852-5.063,15.482-4.706c1.498,0.328,2.711,1.18,3.42,2.417c2.111,3.645-1.236,6.11-12.141,13.354     c-7.107,4.721-16.889,10.886-27.247,17.411c-12.48,7.865-28.842,18.175-40.358,26.049c22.202-11.935,62.645-37.078,99.268-61.095     c0.813-0.534,1.808-0.707,2.754-0.485c0.945,0.228,1.758,0.831,2.243,1.674c0.491,0.858,0.977,2.28,0.461,4.175     c-2.62,9.582-37.277,30.707-96.254,63.958c-3.414,1.923-6.749,3.806-9.618,5.437c-0.261,0.315-0.588,0.591-0.964,0.813     c-0.382,0.221-0.801,0.364-1.219,0.431c-1.759,1.01-3.257,1.877-4.354,2.529c-0.77,0.513-1.546,1.043-2.262,1.546     C265.745,126.162,265.029,126.387,264.314,126.387z M291.762,75.673c0.667,0.291,1.255,0.789,1.643,1.467     C292.986,76.407,292.386,75.937,291.762,75.673z" style="fill:#A91C44;"/></g><g><path d="M262.913,427.883c-1.216,0-2.404-0.631-3.06-1.765c-0.5-0.861-0.979-2.292-0.437-4.209     c0.563-2.007,1.713-6.076,21.926-19.728c0.024-0.193,0.061-0.388,0.115-0.582c0.625-2.322,3.39-4.937,10.752-9.685     c-0.225-0.206-0.425-0.455-0.595-0.728c-1.006-1.662-0.484-3.827,1.177-4.846c0.115-0.072,7.793-4.778,17.987-10.934     c-0.504-0.304-0.946-0.734-1.256-1.273c-2.747-4.768,1.904-9.795,29.279-26.993c-0.085-0.127-0.17-0.255-0.242-0.388     c-0.534-0.916-1.044-2.438-0.455-4.47c0.424-1.455,1.128-3.899,7.938-9.594c-1.431-5.161,5.222-12.808,34.446-31.674     c-0.055-0.546,0-1.116,0.151-1.674c0.395-1.426,1.013-3.699,12.286-11.632c-0.018-2.692,3.3-5.604,11.201-11.353     c2.384-1.734,5.197-3.711,8.43-5.925c-0.733-1.419-0.916-3.178,4.075-7.944c-0.807-0.4-1.468-1.019-1.916-1.795     c-1.432-2.468,0.163-4.148,2.286-5.782c-0.425-0.337-0.782-0.749-1.056-1.225c-0.909-1.574-0.479-3.578,0.988-4.639l11.947-8.581     c-0.903-0.37-1.638-1.01-2.123-1.838c-1.206-2.098-0.83-3.938,1.613-6.358c-0.406-0.309-0.746-0.704-1.013-1.155     c-1.831-3.175,0.874-5.579,7.727-11.201c0.072-0.064,0.14-0.122,0.218-0.182c-1.51,0.564-3.269,0.033-4.19-1.374     c-1.073-1.625-0.618-3.809,1.007-4.882c1.644-1.085,3.227-2.131,4.767-3.138c0.928-0.616,1.868-1.234,2.79-1.859     c-1.978,1.013-2.608,0.937-3.566,0.704c-0.946-0.225-1.813-0.867-2.298-1.707c-0.965-1.674-0.407-3.818,1.261-4.806     c0.631-0.373,1.268-0.752,1.904-1.137c-0.327-0.282-0.606-0.619-0.83-1.003c-1.559-2.708,0.618-4.448,2.528-5.986     c1.116-0.895,2.717-2.144,4.646-3.632c0.697-0.534,1.431-1.095,2.201-1.686c-0.4-0.297-0.746-0.67-0.982-1.092     c-0.958-1.655-0.892-3.123,0.643-5.085c-0.061-0.015-0.121-0.03-0.182-0.045c-0.94-0.227-1.74-0.831-2.226-1.665     c-1.644-2.85-0.474-5.061,7.993-11.825c-1.092,0.694-2.184,1.389-3.263,2.08c-0.813,0.524-1.808,0.688-2.741,0.458     c-0.94-0.227-1.74-0.831-2.226-1.665c-1.146-1.986-0.437-3.702,1.37-5.598c-1.115,0.246-1.85,0.194-2.468,0.049     c-1.134-0.261-2.063-0.943-2.614-1.91c-1.395-2.405-0.018-4.248,2.517-6.341c-0.2-0.021-0.376-0.054-0.552-0.097     c-1.061-0.255-1.928-0.904-2.462-1.822c-1.279-2.208-0.285-3.708,2.031-5.691c-1.982,0.618-2.808,0.431-3.499,0.279     c-1.176-0.264-2.146-0.964-2.723-1.965c-1.438-2.489,0.418-4.239,1.91-5.646c0.85-0.8,2.074-1.929,3.554-3.263     c0.097-0.091,0.2-0.188,0.304-0.279l-6.774,3.915c-0.813,0.464-1.776,0.591-2.681,0.349c-0.909-0.243-1.68-0.834-2.146-1.644     c-1.57-2.729,0.661-4.703,3.026-6.795c0.934-0.819,2.11-1.829,3.571-3.05c-0.061-0.006-0.127-0.021-0.188-0.034     c-1.146-0.242-2.099-0.928-2.668-1.922c-0.867-1.5-0.521-3.408,0.824-4.502l1.947-1.592c-1.146,0.813-2.281,1.634-3.391,2.443     c-0.813,0.588-1.831,0.804-2.808,0.601c-0.988-0.206-1.831-0.822-2.335-1.692c-0.648-1.128-0.897-2.256-0.395-3.663     c-0.224-0.021-0.442-0.055-0.654-0.119c-0.91-0.246-1.686-0.846-2.146-1.667c-0.57-1.004-0.607-1.871-0.364-2.626     c-2.407,1.68-4.797,3.384-7.113,5.063c-0.807,0.588-1.832,0.807-2.808,0.598c-0.982-0.209-1.82-0.819-2.329-1.689     c-1.698-2.944-0.006-5.667,6.167-10.701c-0.303-0.267-0.576-0.573-0.77-0.913c-0.352-0.606-0.559-1.21-0.606-1.84     c-0.837,0.227-1.273,0.112-1.838-0.037c-0.922-0.233-1.759-0.861-2.237-1.686c-0.207-0.364-0.346-0.746-0.413-1.134     c-8.447,4.69-9.224,4.484-10.23,4.227c-0.915-0.233-1.74-0.852-2.207-1.67c-0.497-0.871-0.776-1.653-0.601-2.556     c-0.637-0.306-1.17-0.797-1.528-1.416c-0.915-1.589-0.637-3.014,0.437-4.512c-0.078-0.016-0.151-0.037-0.236-0.058     c-0.909-0.237-1.691-0.834-2.165-1.65c-0.807-1.389-0.576-3.144,0.57-4.275l9.685-9.627c-0.77,0.546-1.492,1.061-2.152,1.534     c-10.662,7.571-12.354,8.621-14.615,8.129c-1.031-0.225-1.91-0.87-2.426-1.771c-0.94-1.619-0.674-2.798,0.412-4.036     l-11.541,6.659c-0.813,0.47-1.776,0.597-2.68,0.355c-0.904-0.243-1.674-0.834-2.141-1.646c-0.595-1.028-0.867-2.08-0.582-3.33     c-0.273-0.037-0.516-0.082-0.723-0.127c-1.352-0.285-2.449-1.061-3.104-2.195c-0.236-0.418-0.418-0.828-0.521-1.243     c-4.718,2.738-7.338,3.529-9.376,3.081c-1.23-0.273-2.256-1.009-2.862-2.071c-0.994-1.719-1.007-3.481,1.183-6.358     c-20.109,11.783-21.092,11.522-22.638,11.125c-0.916-0.233-1.759-0.87-2.238-1.692c-0.267-0.464-0.431-0.901-0.497-1.307     c-11.522,6.358-13.063,5.992-14.476,5.649c-1.067-0.258-1.946-0.91-2.486-1.832c-0.964-1.689-0.388-3.848,1.304-4.824     c0.788-0.458,1.692-0.573,2.529-0.391c5.846-1.744,35.815-19.906,62.384-37.087c1.607-1.034,3.741-0.609,4.827,0.967     c0.85,1.231,0.807,2.814,0.019,3.987c0.521-0.318,1.055-0.64,1.583-0.961c7.246-4.381,7.234-4.375,8.695-4.002     c0.929,0.233,1.717,0.831,2.195,1.652c1.607,2.783-0.739,4.594-2.808,6.195c-1.255,0.973-3.063,2.326-5.185,3.92     c-1.935,1.456-4.736,3.554-7.823,5.919c0.272-0.188,0.54-0.373,0.801-0.558c16.191-11.34,20.649-14.139,23.863-13.423     c1.14,0.249,2.08,0.931,2.638,1.917c0.85,1.456,0.673,2.717-0.104,3.908c3.572-2.286,5.938-3.748,5.986-3.778     c1.619-0.998,3.723-0.546,4.784,1.025c1.062,1.574,0.691,3.699-0.837,4.824c-0.006,0.009-0.146,0.109-0.394,0.291l6.252-3.611     c1.687-0.973,3.845-0.394,4.821,1.294c1.104,1.901,0.716,3.327-1.589,5.616c0.94,0.373,1.704,1.031,2.214,1.904     c0.8,1.389,0.569,3.141-0.57,4.272l-7.526,7.48c7.969-4.682,11.904-6.977,14.052-8.047c0.17-0.122,0.261-0.188,0.272-0.194     l0.03,0.045c1.802-0.873,2.201-0.767,2.911-0.579c0.916,0.243,1.692,0.843,2.159,1.662c0.909,1.583,0.461,3.59-1.025,4.643     c-1.134,0.803-2.28,1.616-3.432,2.435c0.818,0.233,1.552,0.758,2.037,1.534c0.23,0.373,0.382,0.776,0.467,1.183     c2.535-1.528,5.088-3.068,7.593-4.582c0.807-0.494,1.783-0.64,2.698-0.403c0.916,0.23,1.698,0.819,2.178,1.631     c1.582,2.692-0.619,4.403-2.226,5.655c-0.176,0.133-0.37,0.282-0.576,0.445c0.363,0.279,0.667,0.631,0.897,1.034     c0.934,1.613,0.455,3.672-1.098,4.703c-0.249,0.164-0.485,0.327-0.728,0.491c0.521,0.354,0.958,0.821,1.279,1.386     c0.394,0.676,0.612,1.301,0.631,1.931c3.232-1.44,5.785-2.153,7.313-1.825c1.285,0.273,2.335,1.019,2.953,2.098     c0.291,0.509,0.449,1.067,0.473,1.619l1.692-0.97c1.662-0.958,3.772-0.421,4.778,1.219c0.298,0.479,0.455,1.001,0.504,1.528     c1.638-0.519,2.965-0.715,3.911-0.515c1.28,0.27,2.323,1.013,2.947,2.092c0.861,1.501,0.516,3.408-0.824,4.503l-0.977,0.801     c0.019,0.003,0.042,0.006,0.061,0.012c1.249,0.264,2.28,1.004,2.898,2.08c1.571,2.711,0.049,3.936-4.444,7.578     c-0.729,0.585-1.535,1.243-2.426,1.953l0.484-0.279c1.577-0.907,3.584-0.473,4.634,1c1.062,1.477,0.824,3.514-0.534,4.712     c-3.518,3.09-7.744,6.811-11.922,10.51c6.397-4.069,13.426-8.751,19.915-13.257c0.818-0.567,1.825-0.761,2.79-0.546     c0.964,0.215,1.788,0.825,2.286,1.68c1.358,2.344,0.363,4.339-3.548,7.908c0.691-0.23,1.067-0.133,1.674,0.012     c0.945,0.227,1.752,0.833,2.237,1.674c0.922,1.601,1.037,2.999-0.697,5.191c0.327-0.021,0.649,0.042,1.092,0.143     c0.952,0.218,1.765,0.825,2.256,1.677c1.158,1.989,0.994,3.521-2.401,6.756c1.188-0.328,1.68-0.206,2.11-0.097     c1.019,0.243,1.855,0.864,2.365,1.75c1.734,3.011,0.503,5.146-9.321,12.841c0.249,0.024,0.473,0.082,0.716,0.14     c0.928,0.23,1.837,0.903,2.322,1.734c1.098,1.91,0.874,3.414-1.485,5.764c0.873,0.318,1.589,0.916,2.05,1.719     c0.903,1.549,0.497,3.526-0.946,4.594c-1.237,0.928-2.541,1.904-3.899,2.92c0.831,0.331,1.517,0.919,1.971,1.698     c0.109,0.194,0.225,0.394,0.321,0.597c1.226-0.343,2.123-0.37,2.887-0.188c1.092,0.261,1.989,0.925,2.535,1.877     c0.801,1.371,1.68,2.902-2.553,7.405c1.013,0.276,1.837,0.909,2.353,1.798l0,0c0.431,0.758,1.31,2.953-1.395,4.93     c-5.524,4.027-10.746,7.863-15.592,11.458c0.916-0.3,1.492-0.248,2.184-0.088c0.946,0.222,1.837,0.88,2.335,1.723     c0.588,1.028,0.788,2.022,0.582,3.056c6.397-4.306,6.604-4.263,8.114-3.915c0.952,0.222,1.788,0.837,2.28,1.686     c0.909,1.571,0.479,3.575-0.995,4.633l-13.645,9.809c0.867,0.251,1.613,0.833,2.074,1.625c1.37,2.368-0.17,4.051-1.796,5.321     c0.438,0.255,0.819,0.6,1.122,1.04c1.092,1.577,0.722,3.735-0.831,4.863c-0.054,0.043-2.959,2.156-7.344,5.234     c0.467-0.04,0.873,0.003,1.28,0.1c1.073,0.242,1.958,0.892,2.492,1.822c0.958,1.649,0.425,3.76-1.194,4.767     c-4.524,2.805-9.104,5.676-13.633,8.548c0.83,0.23,1.576,0.77,2.056,1.562c0.994,1.622,0.521,3.738-1.062,4.785     c-0.079,0.048-4.663,3.077-11.104,7.219c0.193,0.207,0.369,0.438,0.516,0.691c1.818,3.166-0.74,4.719-4.991,7.302     c-2.469,1.504-6.022,3.608-10.298,6.138c-0.157,0.091-0.309,0.182-0.461,0.272c3.306-1.043,4.591-0.758,5.513-0.558     c1.407,0.314,2.554,1.121,3.221,2.292c0.485,0.831,0.606,1.819,0.339,2.741c-0.267,0.928-0.897,1.704-1.752,2.146     c-36.672,19.297-76.781,43.312-86.654,53.343c9.964-4.306,32.942-20.286,42.463-26.902c13.19-9.175,13.445-9.333,15.452-8.896     c0.958,0.212,1.819,0.843,2.322,1.703c2.208,3.827-1.722,6.908-11.91,13.548c-2.947,1.923-6.361,4.063-10.091,6.374     c1.146,0.061,2.237,0.691,2.85,1.759c1.978,3.414-0.042,5.561-14.427,15.276c-1.729,1.164-3.62,2.426-5.683,3.784     c0.353,0.928,0.4,1.958,0.122,2.983c-0.807,3.014-5.125,6.798-13.742,12.401c0.4,0.795,0.491,1.71,0.249,2.571     c-0.255,0.916-0.88,1.68-1.717,2.146c-21.043,11.401-42.784,24.058-59.249,34.592l34.046-19.654     c1.686-0.977,3.845-0.395,4.821,1.297c0.982,1.681,0.399,3.846-1.292,4.821l-66.666,38.497     C264.126,427.731,263.514,427.883,262.913,427.883z" style="fill:#A91C44;"/></g><g><path d="M252.403,467.174c-1.067,0-2.107-0.485-2.802-1.377c-1.091-1.412-0.955-3.414,0.315-4.676     c1.889-1.861,3.894-3.875,5.74-5.748c-0.867-1.504-0.521-3.433,0.855-4.53c1.025-0.813,2.052-1.638,3.089-2.48     c-1.801,1.188-3.59,2.371-5.321,3.529c-0.813,0.546-1.813,0.733-2.765,0.51c-0.955-0.213-1.774-0.825-2.262-1.674     c-0.406-0.71-0.63-1.396-0.637-2.104c-0.364-0.006-0.7-0.049-1.025-0.121c-1.437-0.31-2.617-1.146-3.32-2.365     c-0.043-0.079-0.082-0.151-0.122-0.225c-4.697,1.989-5.985,1.692-6.971,1.462c-1.179-0.279-2.149-0.977-2.729-1.989     c-0.598-1.025-0.813-1.953-0.361-3.111c-0.406,0.255-0.803,0.51-1.209,0.758c-1.51,0.959-3.5,0.631-4.624-0.752     c-1.128-1.383-1.043-3.396,0.2-4.682l3.742-3.875c-5.097,3.123-6.85,3.614-8.542,3.221c-1.058-0.243-1.928-0.892-2.465-1.813     c-1.559-2.711,0.813-4.561,2.086-5.567c0.782-0.618,1.907-1.474,3.217-2.486c0.855-0.643,2.01-1.54,3.314-2.547     c-0.018-0.03-0.033-0.055-0.048-0.085c-0.74-1.268-0.604-2.868,0.328-4.003c0.521-0.643,1.061-1.304,1.595-1.971     c-6.619,4.3-7.583,4.755-9.373,4.33c-0.946-0.225-1.807-0.861-2.29-1.698c-0.545-0.945-0.625-2.092-0.212-3.099l1.482-3.639     c-3.39,2.607-5.315,3.869-7.435,3.451c-1.098-0.213-2.044-0.886-2.596-1.844c-0.467-0.807-0.658-1.547-0.516-2.377     c-0.9,0.515-1.704,0.97-2.426,1.321c-0.021,0.019-0.042,0.03-0.063,0.049l-0.009-0.019c-2.405,1.165-3.921,1.226-5.207-0.988     c-0.895-1.534-0.515-3.487,0.882-4.572c1.992-1.553,4.072-3.221,6.067-4.882c-0.367-0.285-0.679-0.637-0.916-1.037     c-0.122-0.219-0.233-0.425-0.325-0.637c-5.952,3.42-6.895,3.196-7.935,2.941c-0.94-0.219-1.829-0.874-2.313-1.71     c-0.4-0.698-0.752-1.311-0.528-2.493c-0.637,0.4-1.271,0.801-1.886,1.201c-0.813,0.516-1.804,0.679-2.738,0.448     c-0.94-0.23-1.743-0.83-2.226-1.667c-0.349-0.601-0.564-1.159-0.601-1.729c-3.305,1.729-4.587,1.867-5.846,1.559     c-1.037-0.243-1.898-0.886-2.423-1.789c-1.271-2.201-0.782-3.772,2.674-6.731c-0.243-0.243-0.452-0.516-0.625-0.813     c-0.2-0.346-0.343-0.661-0.431-0.971c-4.96,2.662-6.237,2.383-7.083,2.201c-1.095-0.248-1.998-0.903-2.55-1.85     c-0.567-0.982-0.755-1.935-0.54-2.929c-0.673-0.321-1.228-0.837-1.604-1.492c-1.131-1.959-0.734-3.159,1.992-6.131     c-0.992-0.249-1.844-0.897-2.35-1.771c-1.122-1.947-0.619-3.621,1.832-6.52c-0.5,0.297-1,0.595-1.492,0.886     c-1.474,0.885-3.369,0.569-4.488-0.728c-1.119-1.305-1.14-3.215-0.051-4.549c1.334-1.619,2.692-3.281,4.023-4.918l-1.947,1.122     c-1.689,0.976-3.854,0.399-4.827-1.292c-0.722-1.249-0.737-2.492-0.179-7.32c-0.543,0.413-1.092,0.85-1.623,1.28     c-0.8,0.661-1.85,0.939-2.875,0.758c-1.022-0.188-1.91-0.813-2.432-1.71c-0.813-1.401-0.594-2.146,0.449-5.707     c0.055-0.182,0.115-0.394,0.182-0.612l-10.176,5.877c-1.689,0.976-3.848,0.388-4.821-1.292c-0.461-0.801-0.634-1.57-0.533-2.396     c-4.224,2.171-5.4,1.916-6.195,1.74c-1.097-0.242-2.004-0.892-2.553-1.85c-0.825-1.419-0.558-3.22,0.643-4.342     c1.298-1.219,2.632-2.486,3.954-3.76c-0.4,0.055-0.749-0.019-1.243-0.134c-0.943-0.23-1.752-0.831-2.231-1.668     c-0.958-1.655-1.347-2.322,3.223-8.351c-1.004,0.31-1.747,0.31-2.478,0.14c-1.046-0.242-1.917-0.879-2.441-1.795     c-0.709-1.231-0.615-2.76,0.233-3.894c1.213-1.606,2.465-3.335,3.666-5.039c-11.713,7.119-12.847,6.847-14.118,6.537     c-0.937-0.236-1.81-0.879-2.295-1.716c-0.133-0.23-0.246-0.474-0.333-0.704l-1.653,0.958c-1.555,0.898-3.535,0.492-4.603-0.958     c-0.428-0.576-0.655-1.237-0.694-1.91c-2.483,1.243-2.978,1.11-3.824,0.897c-0.916-0.236-1.713-0.837-2.186-1.661     c-1.322-2.293-0.446-4.379,3.59-8.29c-0.357-0.285-0.667-0.637-0.903-1.056c-1.113-1.916-0.725-2.759,1.931-6.021     c-0.625,0.212-1.14,0.194-1.81,0.048c-0.97-0.218-1.822-0.836-2.319-1.697c-0.783-1.365-0.573-3.081,0.515-4.209     c0.221-0.23,0.443-0.467,0.667-0.697c-0.315,0.2-0.615,0.388-0.903,0.582c-9.106,5.9-9.652,6.246-11.538,5.791     c-0.94-0.224-1.78-0.849-2.265-1.691c-0.819-1.413-0.552-3.214,0.64-4.336c1.392-1.311,2.813-2.662,4.229-4.039     c-8.441,5.228-10.652,5.9-12.629,5.422c-1.055-0.255-1.929-0.897-2.465-1.825c-0.752-1.304-0.591-2.941,0.4-4.082l8.475-9.703     c-0.709-0.333-1.313-0.873-1.707-1.546c-0.491-0.855-0.604-1.868-0.315-2.808c0.112-0.37,0.23-0.752,0.346-1.141     c-5.979,4.245-8.263,5.592-10.592,5.076c-1.085-0.23-2.019-0.909-2.565-1.85c-1.361-2.365-0.509-3.597,3.129-6.683     c-0.322-0.268-0.604-0.589-0.828-0.971c-0.664-1.158-0.77-2.292-0.313-3.542c-0.254-0.163-0.494-0.363-0.706-0.612     c-0.479-0.546-0.764-1.2-0.852-1.874c-10.598,6.35-11.653,6.089-12.902,5.786c-0.937-0.23-1.808-0.874-2.287-1.711     c-1.283-2.219-0.728-3.826,3.703-7.707c-0.016-0.03-0.034-0.055-0.049-0.085c-0.828-1.438-0.895-2.656,0.546-4.682     c-0.982-0.261-1.792-0.886-2.298-1.753c-0.828-1.443-0.707-2.462,0.236-3.83c-2.177,1.246-3.196,1.456-4.43,1.168     c-0.949-0.225-1.853-0.886-2.337-1.731c-0.152-0.258-0.27-0.503-0.364-0.746c-1.774,0.828-2.271,0.7-3.111,0.485     c-0.922-0.239-1.734-0.855-2.208-1.677c-0.336-0.576-0.497-1.107-0.524-1.604c-2.414,1.119-2.968,0.977-3.684,0.798     c-0.922-0.236-1.737-0.852-2.213-1.674c-1.362-2.365-0.343-3.466,3.444-7.563c0.003-0.006,0.003-0.009,0.009-0.009     c-0.355,0.215-0.709,0.434-1.062,0.655c-0.813,0.498-1.798,0.652-2.72,0.418c-0.928-0.23-1.719-0.831-2.198-1.659     c-0.961-1.665-1.731-2.999,4.448-9.218c-0.152-0.021-0.285-0.055-0.416-0.088c-1.007-0.243-1.847-0.861-2.356-1.75     c-0.84-1.443-0.697-2.526,0.121-3.633c-0.661,0.27-1.397,0.331-2.11,0.164c-0.952-0.218-1.773-0.825-2.265-1.674     c-0.519-0.897-0.771-1.707-0.558-2.666c-2.059,1.125-2.456,1.025-3.411,0.786c-0.922-0.237-1.722-0.84-2.199-1.668     c-0.448-0.782-0.7-1.479-0.606-2.253c-1.477,0.64-3.241,0.203-4.236-1.134c-1.14-1.537-0.852-3.702,0.652-4.888     c2.271-1.783,4.906-3.848,7.705-6.053c-0.661-0.36-1.207-0.888-1.592-1.549c-0.676-1.176-1.48-2.565,1.204-6.294     c-0.391,0.048-0.789,0.024-1.176-0.064c-0.961-0.221-1.783-0.828-2.277-1.68c-1.234-2.138-0.258-3.781,1.895-5.846     c-1.528,0.5-2.641,0.585-3.563,0.373c-1.137-0.264-2.077-0.949-2.647-1.935c-0.897-1.556-1.08-2.771,1.016-5.31     c-0.71,0.315-1.513,0.392-2.28,0.203c-0.934-0.23-1.734-0.831-2.214-1.665c-0.385-0.664-0.625-1.289-0.661-1.922     c-2.064,0.995-2.565,0.87-3.417,0.649c-0.922-0.233-1.731-0.849-2.205-1.671c-1.734-3.001,0.209-4.487,6.656-9.415     c0.576-0.443,1.183-0.904,1.822-1.386c-0.167-0.021-0.309-0.055-0.442-0.091c-1.004-0.246-1.838-0.864-2.35-1.75     c-1.365-2.365-0.834-4.363,3.645-8.196c-0.094-0.015-0.191-0.03-0.288-0.052c-1.337-0.279-2.441-1.067-3.105-2.216     c-0.937-1.619-0.445-3.684,1.11-4.715l5.152-3.411c-0.243-0.212-0.461-0.458-0.646-0.743c-1.052-1.607-0.625-3.76,0.958-4.846     c0.072-0.048,3.672-2.514,9.114-6.143c-2.107,0.816-3.411,0.952-4.417,0.712c-1.098-0.261-2.001-0.928-2.547-1.874     c-1.85-3.199,1.052-5.246,5.861-8.633c2.726-1.919,6.553-4.5,11.659-7.854c-8.875,4.815-14.621,7.829-14.749,7.899     c-1.698,0.892-3.805,0.258-4.733-1.425c-0.925-1.686-0.336-3.8,1.328-4.761l90.184-52.069     c12.92-8.533,19.651-13.981,23.15-17.383c-11.076,5.907-32.887,19.749-49.825,30.504C57.18,113.4,49.814,117.569,46.251,116.693     c-1.043-0.255-1.907-0.901-2.435-1.807c-0.409-0.707-0.546-1.495-0.442-2.25c-1.331,0.212-2.738-0.361-3.518-1.568     c-1.034-1.598-0.615-3.727,0.94-4.815l19.066-13.326c-0.03-0.009-0.063-0.016-0.097-0.024c-1.219-0.273-2.226-1.001-2.829-2.05     c-1.68-2.911,0.74-4.836,4.1-7.511c0.406-0.324,0.855-0.679,1.35-1.055c-0.14-0.17-0.267-0.352-0.379-0.543     c-0.971-1.689-0.395-3.848,1.298-4.824c0.776-0.449,1.655-0.57,2.471-0.4c3.099-1.171,12.647-7.514,17.927-11.022     c9.375-6.228,10.143-6.74,12.092-6.279c0.955,0.224,1.804,0.855,2.292,1.698c0.197,0.337,0.331,0.655,0.416,0.964     c17.75-12.129,24.072-15.64,27.799-14.8c1.234,0.279,2.253,1.016,2.863,2.071c0.916,1.589,0.467,3.611-1.034,4.661l-9.476,6.625     c20.097-11.519,20.919-11.304,22.366-10.931c0.916,0.239,1.731,0.852,2.201,1.673c0.033,0.058,0.063,0.109,0.091,0.164     c7.593-4.148,10.858-5.137,12.814-4.658c1.092,0.27,2.001,0.94,2.547,1.886c0.579,1.01,1.137,2.689,0.476,4.97     c-0.088,0.306-0.188,0.658-0.354,1.08l6.228-3.593c0.81-0.47,1.774-0.594,2.677-0.355c0.91,0.243,1.677,0.837,2.147,1.646     c0.871,1.507,0.712,2.769-0.233,4.06c3.499-1.322,6.04-1.78,7.72-1.379c1.352,0.324,2.462,1.122,3.114,2.259     c1.88,3.257-0.967,5.294-6.644,9.354c-3.602,2.58-8.966,6.228-15.937,10.843c-11.701,7.744-28.121,18.342-48.809,31.501     c-2.168,1.38-4.339,2.756-6.504,4.133c0.54,1.504,0.003,3.227-1.373,4.139l-19.406,12.847c0.018,0.037,0.036,0.067,0.058,0.1     c1.935,3.348-0.14,6.337-10.676,13.963c0.737,0.291,1.355,0.822,1.755,1.513c1.11,1.928,0.667,3.402-1.64,5.64     c6.067-3.393,6.725-3.223,7.95-2.911c0.922,0.237,1.759,0.867,2.238,1.692c2.214,3.835-2.286,6.916-7.983,10.819     c-2.141,1.464-4.664,3.114-7.372,4.848c0.749,1.489,0.361,3.312-0.958,4.357c-1.464,1.161-2.947,2.35-4.43,3.542     c7.08-4.751,7.192-4.727,8.842-4.345c0.952,0.222,1.792,0.837,2.28,1.689c1.822,3.16-1.201,5.837-6.216,10.27     c-0.222,0.2-0.449,0.4-0.683,0.604c0.938,0.288,1.708,0.895,2.195,1.737c0.876,1.52,0.507,3.454-0.87,4.539     c-3.817,3.018-7.856,6.368-11.434,9.497c4.945-3.181,10.528-6.998,15.579-10.649c0.804-0.583,1.819-0.797,2.792-0.594     c0.974,0.203,1.813,0.81,2.32,1.667c1.167,1.983,0.361,3.36-1,4.618l0.021,0.036c-0.103,0.076-0.209,0.152-0.318,0.23     c-0.385,0.333-0.803,0.664-1.222,0.998l-8.781,6.907c0.452,0.322,0.833,0.743,1.119,1.234c0.416,0.719,0.549,1.531,0.434,2.305     c0.852-0.23,1.301-0.122,1.88,0.03c0.922,0.233,1.768,0.867,2.247,1.695c1.08,1.868,0.31,3.338-0.81,4.518     c0.967,0.27,1.765,0.879,2.262,1.74c0.646,1.116,0.876,2.187,0.313,3.608c1.265-0.813,2.523-1.622,3.757-2.426     c1.577-1.028,3.678-0.64,4.782,0.879c1.107,1.519,0.828,3.642-0.63,4.821c-3.327,2.695-6.738,5.515-9.997,8.259     c0.303,0.009,0.545,0.07,0.815,0.137c0.928,0.233,1.75,0.852,2.226,1.68c0.785,1.361,0.576,3.075-0.513,4.212     c-1.328,1.392-2.687,2.811-4.036,4.221c3.214-1.925,6.553-3.948,9.791-5.925c0.81-0.497,1.792-0.643,2.711-0.409     c0.921,0.236,1.71,0.831,2.186,1.658c1.116,1.929,0.552,3.457-1.507,5.561c0.346,0.276,0.643,0.616,0.87,1.007     c0.679,1.18,0.779,2.262,0.315,3.399c0.379,0.291,0.707,0.658,0.949,1.08c0.788,1.365,0.803,2.708-0.243,4.669     c1.504-0.998,2.999-2.007,4.43-2.993c1.549-1.064,3.657-0.734,4.803,0.755c1.146,1.489,0.925,3.615-0.5,4.836     c-0.455,0.388-0.916,0.785-1.376,1.186c0.04,0.009,0.076,0.021,0.118,0.03c0.925,0.233,1.737,0.846,2.217,1.671     c0.694,1.204,0.606,2.662-0.14,3.757c0.519,0.31,0.958,0.743,1.265,1.276c0.13,0.228,0.264,0.455,0.37,0.694     c6.722-3.954,8.341-3.608,9.279-3.405c1.131,0.24,2.062,0.913,2.623,1.886c0.918,1.592,0.464,3.626-1.049,4.669     c-1.583,1.092-3.211,2.256-4.818,3.427c0.161,0.182,0.306,0.376,0.427,0.588c1.056,1.832,0.725,3.56-1.164,5.901     c0.233,0.224,0.431,0.473,0.588,0.752c0.513,0.879,0.816,1.406,0.064,4.584c0.673-0.455,1.276-0.867,1.728-1.183     c3.633-2.498,4.285-2.953,5.943-2.577c0.961,0.213,1.804,0.831,2.295,1.686c0.758,1.305,0.594,2.954-0.4,4.088l-6.829,7.829     c1.435-0.928,2.774-1.808,3.93-2.56c10.024-6.555,10.413-6.816,12.308-6.355c0.946,0.225,1.783,0.85,2.269,1.692     c0.788,1.364,1.485,2.571-1.999,7.102c2.086-0.977,3.057-1.019,4.072-0.765c1.019,0.243,1.865,0.873,2.38,1.765     c0.594,1.031,1.149,1.989-0.137,4.476c0.137,0.013,0.273,0.037,0.41,0.067c1.094,0.248,2.001,0.903,2.553,1.861     c0.873,1.517,1.04,2.462-1.177,5.658c6.731-4.336,7.099-4.487,8.778-4.081c0.943,0.224,1.768,0.843,2.253,1.686     c1.525,2.65-0.57,4.306-2.256,5.628c-0.54,0.425-1.067,0.837-1.583,1.243c1.298,0.188,2.05,1.109,2.323,1.516     c0.394,0.595,0.585,1.262,0.594,1.935l2.017-1.17c1.625-0.94,3.699-0.449,4.727,1.128c0.185,0.285,0.321,0.588,0.418,0.892     c0.127-0.073,0.255-0.152,0.382-0.237c0.81-0.515,1.801-0.685,2.738-0.454s1.74,0.831,2.223,1.667     c0.706,1.226,1.479,2.565-2.086,8.618c4.224-2.826,4.669-3.051,6.247-2.681c0.952,0.225,1.783,0.831,2.271,1.686     c0.731,1.268,0.6,2.869-0.331,4.003c-1.304,1.589-2.638,3.226-3.942,4.839c2.32-1.146,3.129-1.091,4.115-0.849     c0.94,0.218,1.847,0.892,2.332,1.729c0.773,1.346,1.4,2.432-1.677,6.422c0.431-0.072,0.874-0.061,1.307,0.036     c0.97,0.207,1.807,0.825,2.304,1.687c0.749,1.298,0.776,2.371,0.018,3.766l0.886-0.503c1.686-0.977,3.848-0.4,4.821,1.291     c0.685,1.177,0.733,2.475,0.079,5.313c1.313-0.461,2.013-0.34,2.517-0.248c1.149,0.212,2.141,0.903,2.717,1.892     c0.709,1.231,0.618,1.946,0.054,6.622c-0.015,0.134-0.03,0.261-0.045,0.4l11.995-6.926c1.692-0.976,3.851-0.399,4.828,1.292     c0.946,1.638,1.276,2.208-3.284,8.103c5.167-2.93,5.61-2.814,6.741-2.511c0.916,0.236,1.704,0.837,2.177,1.649     c1.41,2.443,0.264,4.476-4.084,9.036c0.828,0.327,1.531,0.915,1.977,1.691c0.734,1.262,0.803,2.432,0.048,3.954     c8.417-5.428,9.345-5.773,11.152-5.343c0.94,0.23,1.811,0.873,2.295,1.71c1.777,3.081-1.222,5.264-3.414,6.854     c-0.328,0.242-0.686,0.503-1.062,0.764c0.634,0.795,0.882,1.789,0.737,2.747c6.795-4.591,7.774-5.179,9.667-4.748     c0.955,0.224,1.822,0.86,2.316,1.71c0.349,0.606,0.552,1.183,0.594,1.759c1.404-0.661,1.986-0.601,2.85-0.395     c0.943,0.225,1.792,0.855,2.274,1.692c1.64,2.85-0.758,4.912-3.542,7.295c-1.498,1.279-3.426,2.856-5.515,4.549     c0.082,0.108,0.158,0.224,0.227,0.346c0.521,0.909,0.606,1.988,0.27,2.94c2.317-1.437,4.764-3.001,7.041-4.476     c1.498-0.976,3.49-0.679,4.637,0.691c0.464,0.553,0.73,1.207,0.803,1.887c0.513-0.104,1.046-0.085,1.559,0.036     c0.925,0.236,1.716,0.837,2.195,1.661c0.421,0.74,0.864,1.498,0.594,2.729c1.347-0.321,2.805,0.17,3.669,1.328     c1.07,1.449,0.886,3.463-0.431,4.693c-0.367,0.34-0.737,0.686-1.113,1.037c0.64,0.358,1.173,0.88,1.543,1.517     c0.546,0.945,0.628,2.092,0.212,3.099l-1.458,3.578c9.724-6.337,11.283-7.077,13.36-6.586c0.94,0.225,1.865,0.909,2.347,1.746     c0.67,1.152,1.255,2.171-0.831,5.816c0.297-0.024,0.594,0.006,0.888,0.061c0.995,0.206,1.85,0.824,2.359,1.698     c0.164,0.291,0.292,0.576,0.385,0.854c3.43-2.031,4.579-2.231,5.946-1.91c1.003,0.242,1.874,0.88,2.386,1.765     c0.788,1.358,0.576,3.081-0.521,4.221l-4.018,4.154c7.783-4.385,8.784-4.136,9.821-3.887c0.939,0.236,1.807,0.885,2.292,1.716     c0.88,1.522,0.497,3.463-0.885,4.548c-3.084,2.42-6.316,5.021-9.367,7.521c14.436-8.242,35.983-21.862,55.801-35.101     c0.813-0.546,1.813-0.722,2.771-0.504c0.946,0.219,1.765,0.831,2.25,1.674c2.358,4.094-2.554,7.689-10.929,13.117     c-2.135,1.377-4.529,2.881-7.089,4.439c1.328,3.002-0.934,5.566-9.484,11.353c0.163,0.182,0.309,0.382,0.431,0.601     c1.734,2.995,0.746,4.79-13.633,16.925c-1.813,1.528-3.645,3.051-5.343,4.452c0.019,0.806-0.34,1.655-1.188,2.801     c0.6,0.304,1.104,0.783,1.437,1.377c0.971,1.698,0.389,3.851-1.31,4.821c-0.17,0.097-0.346,0.182-0.527,0.242     c-1.279,0.674-7.72,4.434-13.472,7.842C253.641,467.01,253.019,467.174,252.403,467.174z M263.495,457.453     c0.94,1.461,2.681,1.88,3.96,1.461C265.981,459.351,264.356,458.787,263.495,457.453L263.495,457.453z M137.017,82.656     c-9.406,5.889-19.415,12.356-28.763,18.448C118.502,94.579,128.272,88.314,137.017,82.656z" style="fill:#A91C44;"/></g><g><path d="M266.601,155.917c-0.886,0-1.492-0.13-1.983-0.233c-2.189-0.461-3.314-1.722-3.875-2.699     c-0.631-1.088-0.782-2.404-0.431-3.696c0.279-1.013,0.928-2.116,2.014-3.356c-0.091-0.127-0.176-0.258-0.255-0.397     c-1.553-2.684-0.743-5.78,5.476-11.401c-0.648-0.318-1.225-0.834-1.576-1.452c-1.571-2.699,0.509-4.291,2.704-5.979     c1.152-0.889,2.809-2.15,4.804-3.657c2.904-2.204,6.525-4.945,10.346-7.82c-0.073-0.1-0.134-0.2-0.2-0.306     c-0.977-1.686-0.395-3.848,1.292-4.824c0.588-0.34,1.23-0.476,1.861-0.47c2.898-1.183,13.699-7.808,22.639-13.667     c1.595-1.037,3.729-0.633,4.827,0.928c1.007,1.434,0.801,3.362-0.425,4.557c3.79-2.28,7.823-4.712,12.08-7.29     c7.732-4.675,7.732-4.682,9.2-4.306c0.922,0.237,1.716,0.834,2.183,1.659c1.802,3.102-0.813,4.791-4.772,7.347     c-2.377,1.537-5.791,3.669-9.824,6.191c-9.103,5.691-27.854,17.414-40.765,26.689c5.337-3.266,11.813-7.05,19.569-11.495     c3.257-2.231,6.398-4.418,9.267-6.416c28.224-19.615,36.508-24.785,40.983-23.787c1.236,0.279,2.256,1.013,2.868,2.074     c0.516,0.895,0.648,1.956,0.37,2.98c-0.043,0.167-0.109,0.336-0.176,0.509c2.292-1.637,4.561-3.271,6.804-4.906     c1.577-1.149,3.784-0.8,4.931,0.776c1.152,1.577,0.801,3.787-0.776,4.939c-0.206,0.151-21.492,15.616-44.173,30.519     C282.41,152.67,271.027,155.917,266.601,155.917z M271.937,146.735c-0.667,0.5-1.285,0.974-1.837,1.419     c10.813-3.521,37.757-20.101,65.805-39.318c-4.385,2.526-9.764,5.579-16.387,9.309c-4.251,2.396-9.15,5.158-14.221,8.054     C289.032,137.388,278.584,144.116,271.937,146.735z" style="fill:#ED2177;"/></g><g><path d="M250.766,423.292c-0.328,0-0.625-0.061-0.967-0.146c-0.922-0.236-1.734-0.855-2.21-1.674     c-1.292-2.237-0.77-3.826,2.838-6.877c-0.228-0.23-0.428-0.491-0.591-0.782c-0.076-0.127-0.14-0.249-0.194-0.37     c-3.223,1.401-5.506,1.959-6.847,1.662c-1.225-0.273-2.229-0.988-2.826-2.025c-0.525-0.91-0.737-1.959-0.616-3.032     c-0.582-0.364-1.061-0.861-1.407-1.456c-1.273-2.207-0.406-4.063,1.931-6.095c-0.921-0.376-1.677-1.03-2.171-1.886     c-0.64-1.104-0.792-2.444-0.431-3.748c0.173-0.624,0.5-1.291,0.989-2.007c-0.03,0.019-0.064,0.036-0.097,0.061     c-1.665,0.988-3.814,0.455-4.821-1.201c-1.013-1.644-0.5-3.808,1.143-4.827c14-8.744,29.873-18.715,45.805-28.793l-44.583,25.743     c-0.813,0.473-1.777,0.594-2.681,0.357c-0.907-0.249-1.677-0.837-2.146-1.655c-0.552-0.952-1.088-2.535-0.5-4.651     c0.297-1.067,0.937-2.244,1.901-3.529c-1.158,0.782-2.317,1.564-3.466,2.347c-0.81,0.552-1.813,0.746-2.771,0.521     s-1.78-0.831-2.268-1.68c-0.519-0.897-0.643-1.941-0.355-2.96c0.188-0.643,0.558-1.291,1.371-2.098     c-2.829,1.17-5.246,2.067-7.32,2.747l-3.359,1.935c-0.813,0.473-1.777,0.594-2.681,0.357c-0.4-0.109-0.776-0.285-1.106-0.516     c-2.908,0.406-4.412,0.085-5.431-0.14c-2.838-0.618-4.275-2.207-4.988-3.438c-0.476-0.83-0.597-1.825-0.333-2.747     c0.27-0.922,0.9-1.697,1.749-2.146c0.17-0.085,5.768-3.038,15.046-8.005c15.813-13.797,54.364-33.918,107.069-60.717     c6.04-3.074,12.341-6.271,18.636-9.503c55.884-33.065,70.972-46.016,74.871-50.922c-2.269,0.616-6.095,2.062-12.535,5.173     c-17.872,12.107-44.446,28.309-84.064,50.062c-28.666,18.411-54.101,34.172-74.137,45.228     c-40.816,25.998-40.832,25.986-43.078,25.44c-0.937-0.23-1.765-0.844-2.244-1.687c-1.273-2.195-0.412-4.251,2.311-6.877     c-0.039-0.012-0.082-0.018-0.121-0.024c-2.341-0.563-3.548-1.91-4.145-2.947c-0.491-0.854-0.606-1.867-0.318-2.801     c0.024-0.086,0.054-0.164,0.085-0.249c-6.167,2.165-8.008,1.729-9.291,1.419c-1.823-0.437-2.769-1.516-3.245-2.335     c-0.118-0.2-0.233-0.431-0.343-0.691l-1.81,1.043c-1.677,0.971-3.827,0.406-4.806-1.261c-0.197-0.328-0.331-0.68-0.409-1.031     c-2.556,0.897-3.278,0.716-3.936,0.546c-1.013-0.261-1.847-0.892-2.359-1.771c-0.604-1.043-1.179-2.796-0.488-5.18     c0.388-1.334,1.268-2.874,2.647-4.633c-0.23-0.68-0.257-1.432-0.069-2.123c0.23-0.849,0.388-1.412,3.141-3.274     c-1.331,0.449-2.195,0.503-2.896,0.34c-1.046-0.249-1.914-0.886-2.441-1.802c-0.243-0.412-0.395-0.873-0.452-1.346     c-5.64,2.844-8.835,3.748-10.673,3.317c-1.116-0.261-2.041-0.903-2.635-1.825c-1.71,0.091-3.22-0.013-4.551-0.315     c-3.542-0.801-5.349-2.814-6.24-4.36c-0.958-1.649-0.424-3.767,1.198-4.773l11.713-7.229c-1.01,0.013-1.819-0.078-2.514-0.248     c-0.849-0.207-1.537-0.528-2.095-0.897c-4.394,1.298-7.866,1.691-10.376,1.115c-2.759-0.643-4.181-2.231-4.891-3.456     c-0.552-0.959-0.676-2.093-0.349-3.185c0.294-0.97,1.149-2.067,2.865-3.469c-0.23-0.218-0.437-0.473-0.606-0.77     c-0.376-0.661-0.746-1.492-0.977-2.499c-9.866,4.111-12.135,3.566-13.639,3.196c-1.361-0.34-2.468-1.141-3.117-2.256     c-0.482-0.837-0.943-2.214-0.415-4.045c0.273-0.946,0.649-2.269,3.074-4.857c-0.197-0.795-0.251-1.771,0.034-2.936     c-0.828-0.588-1.361-1.279-1.704-1.868c-0.339-0.588-0.5-1.315-0.473-2.013c-1.549,0.346-2.765,0.406-3.669,0.182     c-1.316-0.315-2.389-1.092-3.023-2.195c-0.021-0.042-0.045-0.079-0.073-0.128c-2.102,0.625-2.847,0.425-3.526,0.255     c-1.062-0.272-1.935-0.928-2.465-1.843c-0.115-0.2-0.209-0.413-0.282-0.637c-2.511,0.733-3.366,0.521-4.082,0.339     c-1.104-0.278-2.01-0.946-2.556-1.892c-2.028-3.518,0.725-5.324,12.311-12.93c0.57-0.376,1.167-0.77,1.786-1.17     c-4.26,2.602-8.441,5.154-12.541,7.659c-0.81,0.503-1.792,0.648-2.711,0.418c-0.925-0.242-1.713-0.843-2.189-1.661     c-0.54-0.934-1.055-2.486-0.452-4.591c0.273-0.964,0.643-2.25,2.375-4.439c-0.598-0.467-0.998-0.988-1.255-1.443     c-0.488-0.84-0.606-1.874-0.328-2.805c0.073-0.242,0.137-0.458,0.249-0.673c-0.813,0.524-1.804,0.697-2.747,0.476     c-0.946-0.224-1.755-0.827-2.244-1.667c-0.321-0.558-0.637-1.316-0.755-2.262c-2.626,1.225-3.211,1.076-3.991,0.879     c-0.925-0.233-1.762-0.864-2.238-1.692c-0.397-0.682-0.588-1.464-0.573-2.268c-0.249,0.154-0.373,0.23-0.373,0.23     c-1.628,1.019-3.769,0.552-4.824-1.049c-1.055-1.604-0.64-3.757,0.94-4.849c0.088-0.061,2.565-1.777,6.832-4.691     c-0.998-0.655-1.634-1.455-2.025-2.131c-0.64-1.11-1.247-2.941-0.573-5.418c-0.3,0.006-0.606-0.021-0.907-0.091     c-0.946-0.227-1.762-0.831-2.247-1.673c-0.749-1.295-0.686-2.499-0.13-3.624c-0.67-0.006-1.268-0.066-1.811-0.194     c-2.165-0.503-3.287-1.768-3.851-2.741c-0.582-1.013-0.725-2.235-0.395-3.442c0.1-0.364,0.212-0.785,0.51-1.346     c-0.722,0.331-1.541,0.409-2.317,0.215c-0.931-0.23-1.728-0.831-2.204-1.662c-0.292-0.503-0.476-1.049-0.561-1.622     c-2.311,0.973-3.181,0.943-4.002,0.733c-0.922-0.233-1.816-0.903-2.292-1.725c-1.925-3.333,1.328-5.567,5.822-8.66     c0.622-0.428,1.301-0.883,2.041-1.38c-0.23-0.03-0.421-0.076-0.606-0.125c-1.112-0.273-2.022-0.946-2.568-1.895     c-0.655-1.131-0.806-2.492-0.434-3.83c0.292-1.049,1.01-2.213,2.184-3.517c-1.131-0.531-2.038-1.362-2.668-2.45     c-0.955-1.659-0.424-3.769,1.198-4.772l4.615-2.854c-0.31-0.233-0.588-0.528-0.81-0.867c-1.061-1.607-0.64-3.772,0.952-4.861     c0.097-0.066,3.266-2.234,8.575-5.81c-2.611,1.155-4.057,1.353-5.191,1.088c-1.077-0.261-1.968-0.916-2.508-1.85     c-1.798-3.117,0.955-5.1,5.121-8.099c2.635-1.896,6.474-4.527,11.726-8.042c0.376-0.251,0.761-0.506,1.146-0.764     c-9.906,5.528-16.61,9.127-16.744,9.197c-1.695,0.913-3.814,0.288-4.751-1.395c-0.937-1.686-0.349-3.812,1.319-4.775     l64.709-37.36c17.029-10.685,26.153-17.508,31.032-21.777c-10.152,5.728-26.908,16.374-40.186,24.809     c-38.509,24.467-42.812,26.617-45.956,25.843c-1.034-0.249-1.886-0.888-2.411-1.792c-0.357-0.618-0.503-1.298-0.467-1.965     c-1.604,0.858-3.611,0.358-4.615-1.179c-1.04-1.583-0.643-3.706,0.895-4.806l16.774-12.014c-0.067-0.006-0.127-0.021-0.188-0.033     c-1.198-0.27-2.18-0.985-2.771-2.01c-1.625-2.811,0.631-4.688,3.487-7.068c0.067-0.058,0.137-0.115,0.207-0.173     c-0.215-0.225-0.403-0.473-0.564-0.746c-0.974-1.692-0.397-3.854,1.294-4.827c0.74-0.431,1.577-0.558,2.356-0.425     c2.763-1.101,10.855-6.492,15.34-9.476c8.29-5.521,8.973-5.979,10.871-5.534c0.952,0.225,1.804,0.855,2.292,1.695     c0.233,0.41,0.379,0.792,0.455,1.159c16.847-11.559,22.384-14.658,25.938-13.866c1.207,0.273,2.204,0.992,2.805,2.032     c0.907,1.57,0.473,3.578-1.004,4.636l-9.06,6.486c17.623-10.104,18.354-9.916,19.794-9.54c0.919,0.24,1.729,0.849,2.202,1.667     c0.07,0.125,0.133,0.249,0.188,0.376c6.932-3.799,9.897-4.693,11.723-4.242c1.076,0.264,1.965,0.922,2.504,1.855     c0.555,0.956,1.08,2.544,0.473,4.682c-0.112,0.388-0.246,0.864-0.528,1.477l4.942-2.859c0.81-0.464,1.777-0.591,2.681-0.349     c0.907,0.242,1.673,0.833,2.144,1.646c1.07,1.85,0.567,3.308-0.961,4.878c3.193-1.216,5.431-1.58,6.971-1.216     c1.304,0.313,2.375,1.088,3.008,2.189c0.185,0.318,0.324,0.622,0.418,0.921c9.603-4.214,12.089-3.647,13.597-3.308     c1.931,0.439,2.938,1.57,3.438,2.438c0.958,1.659,0.421,3.769-1.201,4.772l-6.131,3.793c0.306,0.318,0.573,0.673,0.794,1.062     c0.494,0.852,0.973,2.256,0.458,4.103c-0.258,0.925-0.813,1.935-1.665,3.029c1.158-0.728,2.298-1.449,3.423-2.162     c0.81-0.516,1.798-0.676,2.732-0.446c0.934,0.23,1.734,0.831,2.216,1.665c0.606,1.049,0.704,2.038,0.403,3.011     c13.193-7.199,14.658-6.826,16.189-6.438c1.034,0.264,1.892,0.903,2.411,1.807c0.627,1.088,0.773,2.393,0.409,3.675     c-0.655,2.316-3.763,5.367-9.612,9.481c0.115,0.546,0.1,1.11-0.049,1.655c-0.249,0.91-0.846,1.68-1.665,2.147     c-60.055,34.018-125.223,73.367-140.281,86.445c3.375-1.001,9.369-3.466,19.964-9.206c7.062-4.287,15.373-9.206,24.321-14.466     c7.705-4.888,15.874-10.021,24.097-15.119c2.44-1.516,4.812-2.978,7.107-4.388c13.402-8.729,26.644-17.574,38.333-25.379     c34.895-23.296,35.198-23.22,37.575-22.666c0.949,0.218,1.838,0.87,2.326,1.716c1.104,1.917,1.058,3.881-2.277,7.283     c1.319,0.315,2.389,1.092,3.023,2.189c0.485,0.843,0.604,1.85,0.322,2.78c-0.279,0.934-0.928,1.708-1.801,2.144     c-0.373,0.185-37.648,18.869-74.371,39.597c-1.816,1.028-3.575,2.029-5.303,3.011c-3.208,1.886-6.538,3.838-9.997,5.861     c-2.514,1.474-5.058,2.965-7.611,4.46c-5.664,3.551-10.949,6.798-15.864,9.736c-29.212,18.633-33.1,25.297-33.503,27.187     c0.719,0.164,2.25,0.179,5.425-0.746c13.666-9.26,34.228-23.002,55.353-36.483c33.915-21.641,54.367-33.099,66.917-39.094     c15.855-9.933,26.459-16.586,27.444-17.229c0.804-0.567,1.808-0.776,2.771-0.567c0.974,0.209,1.816,0.819,2.316,1.683     c1.18,2.025,0.304,3.444-1.043,4.569l0.049,0.067c-0.103,0.079-3.326,2.393-8.781,6.246c0.479,0.307,0.864,0.658,1.167,1.004     c14.224-8.572,28.069-16.844,40.974-24.418c64.003-37.587,68.176-36.532,70.935-35.828c1.031,0.261,1.898,0.852,2.468,1.68     c2.809-0.534,4.069-0.233,4.985-0.015c2.025,0.482,3.075,1.652,3.597,2.556c0.388,0.661,0.752,1.522,0.945,2.589     c5.932-3.189,9.321-5,9.467-5.076c1.668-0.892,3.748-0.309,4.706,1.319c0.964,1.628,0.473,3.727-1.116,4.755     c-0.127,0.091-2.972,1.94-7.98,5.176c3.693-1.371,4.639-1.134,5.397-0.94c1.062,0.273,1.94,0.925,2.468,1.843     c0.971,1.674,0.412,3.812-1.243,4.8c-74.246,44.197-175.06,104.774-231.095,139.532c59.261-33.133,165.363-97.163,242.302-144.55     c0.813-0.5,1.795-0.649,2.723-0.416c0.922,0.234,1.71,0.831,2.189,1.659c0.612,1.055,0.752,2.332,0.406,3.599     c-0.03,0.106-0.061,0.222-0.097,0.346c0.546,0.313,1.007,0.764,1.322,1.307c0.242,0.427,0.484,0.943,0.673,1.541     c1.146,0.549,1.819,1.358,2.201,2.016c0.455,0.789,0.892,1.862,1.056,3.202c3.408-1.798,5.306-2.796,5.421-2.856     c1.662-0.87,3.706-0.291,4.67,1.319c0.958,1.607,0.497,3.688-1.056,4.736c-0.023,0.021-0.151,0.109-0.394,0.267     c0.055,0.012,0.108,0.027,0.157,0.04c0.982,0.249,1.795,0.833,2.329,1.655c4.342-0.709,6.488-0.246,7.926,0.07     c3.408,0.743,5.124,2.623,5.955,4.069c0.497,0.861,0.612,1.893,0.31,2.838c-0.303,0.949-0.988,1.725-1.893,2.138     c-1.795,0.825-3.656,1.686-5.585,2.581c0.552,0.297,1.031,0.752,1.371,1.337c0.903,1.564,1.752,4.172,0.679,7.717     c-0.218,0.749-0.533,1.525-0.928,2.323c3.099-1.531,4.039-1.495,5.021-1.258c0.939,0.228,1.855,0.9,2.341,1.734     c0.952,1.659,0.412,3.769-1.207,4.773l-36.871,22.769c-12.056,8.154-29.061,18.896-53.082,33.142     c-32.929,21.162-70.043,44.807-102.118,64.028c-13.557,8.12-24.809,14.609-34.167,19.775l-46.659,28.818     c2.28-0.085,5.1-0.661,8.384-1.68c6.146-3.196,16.095-8.405,28.605-15.016c17.244-10.958,39.058-25.416,60.499-39.631     c53.175-35.252,98.058-64.637,130.235-82.96c35.538-24.024,47.029-30.531,51.614-29.497c1.219,0.279,2.214,1,2.808,2.035     c0.655,1.131,1.268,3.023,0.51,5.622c-0.23,0.786-0.54,1.832-1.468,3.354c0.558,0.515,0.958,1.061,1.237,1.546     c0.837,1.447,1.613,3.878,0.576,7.232c-0.225,0.746-0.516,1.689-1.152,2.932c0.121,0.655,0.121,1.44-0.128,2.341     c-0.042,0.164-0.091,0.346-0.151,0.537c0.801-0.139,1.413-0.133,1.929-0.009c1.092,0.261,1.983,0.921,2.529,1.859     c0.479,0.836,0.6,1.828,0.333,2.753c-0.455,1.556-0.455,1.556-16.483,9.961c-3.711,1.949-8.107,4.257-13.08,6.868     c-3.172,1.98-6.556,4.109-10.104,6.362c-6.337,4.287-13.803,9.111-22.626,14.536c-1.504,0.973-3.021,1.956-4.542,2.944     c1.061-0.637,2.128-1.28,3.208-1.923l51.662-31.07l0.036,0.066c1.498-0.764,1.855-0.673,2.668-0.458     c1.377,0.358,2.408,1.51,2.608,2.911c0.085,0.579,0.024,1.152-0.164,1.677c0.958,0.221,1.825,0.843,2.323,1.777     c0.539,1.013,0.539,2.177,0.097,3.15c0.388,0.285,0.722,0.652,0.964,1.08c0.85,1.464,1.632,3.924,0.595,7.323     c-0.497,1.625-1.298,4.245-5.331,8.848c-0.023,1.192-0.643,2.338-1.752,2.984c-0.873,0.516-1.771,1.037-2.662,1.562     c-2.705,2.559-6.187,5.558-10.716,9.072c1.644,0.482,2.528,1.492,2.972,2.277c0.558,0.949,1.079,2.535,0.46,4.672     c-0.521,1.792-1.413,4.894-11.576,13.111c0.115,0.761,0.048,1.564-0.183,2.356c-0.691,2.316-3.226,5.061-7.95,8.532     c0.601,1.195,1.079,3.026,0.395,5.422c-1.201,4.179-6.301,9.545-14.451,15.864c-0.71,2.426-4.185,5.531-13.003,11.092     c0.583-0.151,1.213-0.151,1.813,0.006c0.91,0.243,1.674,0.831,2.147,1.649c1.88,3.257-0.977,5.318-6.671,9.418     c-3.639,2.614-9.042,6.308-16.064,10.977c-0.752,0.498-1.528,1.013-2.323,1.534c0.03,0.013,0.073,0.019,0.104,0.024     c0.916,0.243,1.729,0.855,2.195,1.68c0.654,1.122,0.801,2.469,0.442,3.803c-1.315,4.761-11.213,11.674-32.178,23.809     c0.037,0.055,0.067,0.109,0.098,0.164c2.237,3.887-0.376,8.029-14.148,17.271c0.212,0.685,0.225,1.425,0.019,2.146     c-0.752,2.692-3.554,4.523-24.968,16.313c0.03,0.036,0.055,0.078,0.085,0.115c1.141,1.552,0.831,3.729-0.697,4.899     c-2.656,2.025-5.609,4.288-8.629,6.604c0.145,0.163,0.278,0.346,0.382,0.527c1.935,3.354-0.576,5.737-10.188,12.717     c0.71,1.619,0.097,3.56-1.474,4.47c-0.182,0.097-0.364,0.182-0.552,0.249c-0.746,0.418-3.068,1.831-4.955,2.995     C254.096,422.146,252.158,423.292,250.766,423.292z M266.17,414.135c0.382,0.024,0.758-0.006,1.104-0.109     C266.916,414.117,266.539,414.146,266.17,414.135z M312.61,358.07c-3.984,2.395-8.666,5.464-13.48,8.714     C304.169,363.68,308.845,360.684,312.61,358.07z M335.819,319.883c-2.11,1.176-4.313,2.389-6.58,3.65     c-20.649,11.426-44.058,24.379-61.894,35.337c-3.747,2.299-7.022,4.379-9.894,6.259L335.819,319.883z M193.155,344.874     c-0.037,0.061-0.076,0.121-0.109,0.176c6.859-1.534,32.405-12.195,127.169-70.444c23.148-14.221,46.023-28.581,65.277-40.776     L193.155,344.874z M214.24,318.409c-6.504,3.662-12.404,7.01-17.396,9.86c3.084-1.413,6.729-3.208,11.046-5.452     C209.829,321.435,211.936,319.968,214.24,318.409z M366.02,293.163c-12.42,6.397-29.57,16.38-49.14,28.417     c13.912-7.622,27.702-15.403,39.909-22.747C360.125,296.826,363.193,294.939,366.02,293.163z M211.863,274.781     c-26.359,13.118-51.338,25.684-60.947,31.724c1.722-0.328,4.163-1.037,7.611-2.39c6.246-3.317,22.793-12.123,44.648-23.961     C206.014,278.42,208.91,276.631,211.863,274.781z M139.97,290.537c-2.65,2.05-4.515,3.656-5.816,4.918     c2.065-0.686,4.961-1.831,9.006-3.669c0.673-1.334,1.562-2.753,2.674-4.245c-0.789,0.285-1.541,0.559-2.247,0.795     C142.378,289.075,141.168,289.803,139.97,290.537z M385.353,278.354c0.873,0,1.462,0.121,1.953,0.236     c2.304-1.776,4.147-3.323,5.634-4.657l-7.653,4.421C385.311,278.354,385.328,278.354,385.353,278.354z M209.207,255.236     c-2.547,1.729-5.085,3.463-7.607,5.186c19.854-11.429,45.131-26.411,77.287-46.014c15.846-9.661,31.596-19.367,46.441-28.579     c-1.274,0.643-2.541,1.28-3.821,1.928c-6.683,3.784-13.639,7.65-20.831,11.58c-5.33,3.387-10.703,6.786-16.095,10.179     C253.525,229.041,228.85,243.92,209.207,255.236z M278.189,147.551c-14.288,8.469-30.877,18.521-50.122,30.434     c-50.368,31.18-99.541,63.115-117.637,74.928c3.026-1.592,7.326-3.781,13.472-6.877c18.809-13.593,54.289-36.189,121.709-74.643     c47.43-27.053,94.877-52.896,119.492-66.187c0.334-0.631,0.564-1.18,0.71-1.665c0.109-0.37,0.163-0.658,0.17-0.885     c-1.407,0.021-4.36,0.643-10.54,3.181c-8.241,4.894-24.725,13.766-58.03,31.48C291.222,140.61,284.793,144.031,278.189,147.551z      M433.007,211.861c-10.485,6.756-31.359,20.149-56.544,36.032c10.314-6.128,19.745-11.708,27.774-16.444     c14.676-9.518,21.571-13.727,25.239-15.458C430.891,214.523,432.072,213.146,433.007,211.861z M379.143,202.84     c-4.839,2.793-10.109,5.898-15.834,9.354c-7.325,4.415-14.931,9.115-22.699,13.994     C355.037,217.713,367.905,209.914,379.143,202.84z M424.347,180.378c-11.237,8.866-30.219,21.926-62.542,41.419     c14.506-7.787,29.879-15.958,46.126-24.521c10.079-7.111,17.774-13.357,22.353-18.412     C428.889,179.059,426.984,179.504,424.347,180.378z M295.115,151.626c-15.064,8.387-30.978,17.329-46.872,26.401     c-26.383,15.049-47.781,27.641-65.155,38.178c9.53-4.857,19.53-9.994,29.728-15.3c8.387-5.021,16.914-10.112,25.449-15.191     c16.067-9.561,30.325-17.978,42.975-25.395C285.934,157.391,290.572,154.483,295.115,151.626z M322.58,209.805     c-1.813,1.225-3.632,2.459-5.464,3.699c16.774-8.899,32.979-17.796,47.356-26.222c15.313-9.855,26.902-17.281,35.726-22.86     c6.24-4.561,11.213-8.733,14.573-12.38c-2.123,0.858-5.161,2.283-9.485,4.624c-8.12,7.007-19.618,15.225-34.615,24.752     C357.329,189.899,341.234,199.393,322.58,209.805z M112.972,180.972c-2.035,1.358-3.987,2.635-5.867,3.838     c7.662-4.354,16.438-9.479,25.798-15.045C126.259,173.449,119.418,177.272,112.972,180.972z M387.463,155.265     c-10.686,6.744-23.65,14.9-37.993,23.854l56.866-32.829c0-0.006,0.006-0.009,0.006-0.009     C400.398,149.089,394.073,152.09,387.463,155.265z M421.12,173.931c-1.049,0.44-2.177,0.928-3.384,1.474     c0.971-0.37,1.91-0.707,2.814-1.019C420.744,174.231,420.933,174.083,421.12,173.931z M434.074,171.981     c0.23,0.037,0.454,0.076,0.667,0.115c0-0.015,0.006-0.033,0.018-0.051c0.104-0.352,0.17-0.658,0.183-0.919     C434.662,171.402,434.371,171.69,434.074,171.981z M380.568,130.562c-11.207,7.532-28.691,18.439-56.035,34.473     c-0.188,0.112-0.37,0.218-0.558,0.327c19.775-10.81,37.944-20.604,52.56-28.424c6.92-4.587,12.322-8.717,15.743-12.229     c-2.426,1.043-5.53,2.511-9.539,4.572C382.042,129.698,381.308,130.125,380.568,130.562z M433.037,162.603     c-0.643,0.306-1.334,0.655-2.086,1.058c0.484-0.076,0.951-0.133,1.4-0.176C432.612,163.17,432.837,162.876,433.037,162.603z      M383.533,148.792c-0.715,0.542-1.455,1.088-2.201,1.64c0.782-0.379,1.559-0.755,2.341-1.125c2.195-1.392,4.306-2.726,6.313-3.99     C387.93,146.42,385.777,147.582,383.533,148.792z M207.679,117.047c-7.55,2.699-24.363,14.112-40.831,25.798     C184.892,132.651,201.839,122.56,207.679,117.047z" style="fill:#ED2177;"/></g></g></g><g id="Layer_1"/></svg>